{
  "accessors": [
    {
      "bufferView": 2,
      "componentType": 5126,
      "count": 6678,
      "max": [
        31.243223190307617,
        31.781192779541016,
        65.88323211669922
      ],
      "min": [
        -31.22899055480957,
        -34.29155349731445,
        24.25753402709961
      ],
      "type": "VEC3"
    },
    {
      "bufferView": 2,
      "byteOffset": 80136,
      "componentType": 5126,
      "count": 6678,
      "max": [
        0.9999079704284668,
        0.9999808073043823,
        0.9999970197677612
      ],
      "min": [
        -0.9996162056922913,
        -0.9997331500053406,
        -1.0
      ],
      "type": "VEC3"
    },
    {
      "bufferView": 3,
      "componentType": 5126,
      "count": 6678,
      "max": [
        0.999998927116394,
        0.9999443292617798,
        0.9997332096099854,
        1.0
      ],
      "min": [
        -0.9999986290931702,
        -0.9999116659164429,
        -0.9783189296722412,
        -1.0
      ],
      "type": "VEC4"
    },
    {
      "bufferView": 1,
      "componentType": 5126,
      "count": 6678,
      "max": [
        4.5413818359375,
        2.3313069343566895
      ],
      "min": [
        -3.721360921859741,
        -2.016016960144043
      ],
      "type": "VEC2"
    },
    {
      "bufferView": 0,
      "componentType": 5125,
      "count": 36528,
      "type": "SCALAR"
    },
    {
      "bufferView": 2,
      "byteOffset": 160272,
      "componentType": 5126,
      "count": 4777,
      "max": [
        30.773828506469727,
        34.00056838989258,
        71.44575500488281
      ],
      "min": [
        -30.834877014160156,
        -0.4163089990615845,
        31.134628295898438
      ],
      "type": "VEC3"
    },
    {
      "bufferView": 2,
      "byteOffset": 217596,
      "componentType": 5126,
      "count": 4777,
      "max": [
        0.9998264908790588,
        0.9992142915725708,
        0.9999973773956299
      ],
      "min": [
        -0.9999196529388428,
        -0.9998380541801453,
        -0.9739149808883667
      ],
      "type": "VEC3"
    },
    {
      "bufferView": 3,
      "byteOffset": 106848,
      "componentType": 5126,
      "count": 4777,
      "max": [
        0.996572732925415,
        0.999194324016571,
        0.9988691210746765,
        1.0
      ],
      "min": [
        -0.9997220039367676,
        -0.9974616169929504,
        -0.9988526701927185,
        -1.0
      ],
      "type": "VEC4"
    },
    {
      "bufferView": 1,
      "byteOffset": 53424,
      "componentType": 5126,
      "count": 4777,
      "max": [
        2.3938241004943848,
        2.1625659465789795
      ],
      "min": [
        -2.0853259563446045,
        -1.2260750532150269
      ],
      "type": "VEC2"
    },
    {
      "bufferView": 0,
      "byteOffset": 146112,
      "componentType": 5125,
      "count": 26826,
      "type": "SCALAR"
    },
    {
      "bufferView": 2,
      "byteOffset": 274920,
      "componentType": 5126,
      "count": 2961,
      "max": [
        30.190277099609375,
        24.855960845947266,
        50.109962463378906
      ],
      "min": [
        -30.190277099609375,
        -32.885414123535156,
        -0.007025000173598528
      ],
      "type": "VEC3"
    },
    {
      "bufferView": 2,
      "byteOffset": 310452,
      "componentType": 5126,
      "count": 2961,
      "max": [
        1.0,
        1.0,
        1.0
      ],
      "min": [
        -1.0,
        -1.0,
        -1.0
      ],
      "type": "VEC3"
    },
    {
      "bufferView": 3,
      "byteOffset": 183280,
      "componentType": 5126,
      "count": 2961,
      "max": [
        1.0,
        1.0,
        0.9999998211860657,
        1.0
      ],
      "min": [
        -1.0,
        -1.0,
        -1.0,
        -1.0
      ],
      "type": "VEC4"
    },
    {
      "bufferView": 1,
      "byteOffset": 91640,
      "componentType": 5126,
      "count": 2961,
      "max": [
        1.852923035621643,
        2.136420965194702
      ],
      "min": [
        -0.9533020257949829,
        -1.2087550163269043
      ],
      "type": "VEC2"
    },
    {
      "bufferView": 0,
      "byteOffset": 253416,
      "componentType": 5125,
      "count": 9684,
      "type": "SCALAR"
    }
  ],
  "asset": {
    "extras": {
      "author": "Interiors3D (https://sketchfab.com/Interiors3D)",
      "license": "CC-BY-4.0 (http://creativecommons.org/licenses/by/4.0/)",
      "source": "https://sketchfab.com/3d-models/fc42-o65-6ff8f8608aad4ee88a36bda56cef8ca7",
      "title": "FC42-O65"
    },
    "generator": "Sketchfab-10.42.0",
    "version": "2.0"
  },
  "bufferViews": [
    {
      "buffer": 0,
      "byteLength": 292152,
      "name": "floatBufferViews",
      "target": 34963
    },
    {
      "buffer": 0,
      "byteLength": 115328,
      "byteOffset": 292152,
      "byteStride": 8,
      "name": "floatBufferViews",
      "target": 34962
    },
    {
      "buffer": 0,
      "byteLength": 345984,
      "byteOffset": 407480,
      "byteStride": 12,
      "name": "floatBufferViews",
      "target": 34962
    },
    {
      "buffer": 0,
      "byteLength": 230656,
      "byteOffset": 753464,
      "byteStride": 16,
      "name": "floatBufferViews",
      "target": 34962
    }
  ],
  "buffers": [
    {
      "byteLength": 984120,
      "uri": "scene.bin"
    }
  ],
  "images": [
    {
      "uri": "textures/Fabric_baseColor.jpeg"
    },
    {
      "uri": "textures/Fabric_metallicRoughness.png"
    },
    {
      "uri": "textures/Fabric_normal.png"
    },
    {
      "uri": "textures/Wood_baseColor.jpeg"
    },
    {
      "uri": "textures/Wood_metallicRoughness.png"
    },
    {
      "uri": "textures/Wood_normal.png"
    }
  ],
  "materials": [
    {
      "doubleSided": true,
      "name": "Fabric",
      "normalTexture": {
        "index": 2
      },
      "pbrMetallicRoughness": {
        "baseColorTexture": {
          "index": 0
        },
        "metallicFactor": 0.0,
        "metallicRoughnessTexture": {
          "index": 1
        }
      }
    },
    {
      "doubleSided": true,
      "name": "Wood",
      "normalTexture": {
        "index": 5
      },
      "pbrMetallicRoughness": {
        "baseColorTexture": {
          "index": 3
        },
        "metallicFactor": 0.0,
        "metallicRoughnessTexture": {
          "index": 4
        }
      }
    }
  ],
  "meshes": [
    {
      "name": "Object_0",
      "primitives": [
        {
          "attributes": {
            "NORMAL": 1,
            "POSITION": 0,
            "TANGENT": 2,
            "TEXCOORD_0": 3
          },
          "indices": 4,
          "material": 0,
          "mode": 4
        }
      ]
    },
    {
      "name": "Object_1",
      "primitives": [
        {
          "attributes": {
            "NORMAL": 6,
            "POSITION": 5,
            "TANGENT": 7,
            "TEXCOORD_0": 8
          },
          "indices": 9,
          "material": 0,
          "mode": 4
        }
      ]
    },
    {
      "name": "Object_2",
      "primitives": [
        {
          "attributes": {
            "NORMAL": 11,
            "POSITION": 10,
            "TANGENT": 12,
            "TEXCOORD_0": 13
          },
          "indices": 14,
          "material": 1,
          "mode": 4
        }
      ]
    }
  ],
  "nodes": [
    {
      "children": [
        1
      ],
      "matrix": [
        1.0,
        0.0,
        0.0,
        0.0,
        0.0,
        2.220446049250313e-16,
        -1.0,
        0.0,
        0.0,
        1.0,
        2.220446049250313e-16,
        0.0,
        0.0,
        0.0,
        0.0,
        1.0
      ],
      "name": "Sketchfab_model"
    },
    {
      "children": [
        2,
        3,
        4
      ],
      "name": "W06 - FC42-O65 - Sketchfab - mesh.obj.cleaner.materialmerger.gles"
    },
    {
      "mesh": 0,
      "name": "Object_2"
    },
    {
      "mesh": 1,
      "name": "Object_3"
    },
    {
      "mesh": 2,
      "name": "Object_4"
    }
  ],
  "samplers": [
    {
      "magFilter": 9729,
      "minFilter": 9987,
      "wrapS": 10497,
      "wrapT": 10497
    }
  ],
  "scene": 0,
  "scenes": [
    {
      "name": "Sketchfab_Scene",
      "nodes": [
        0
      ]
    }
  ],
  "textures": [
    {
      "sampler": 0,
      "source": 0
    },
    {
      "sampler": 0,
      "source": 1
    },
    {
      "sampler": 0,
      "source": 2
    },
    {
      "sampler": 0,
      "source": 3
    },
    {
      "sampler": 0,
      "source": 4
    },
    {
      "sampler": 0,
      "source": 5
    }
  ]
}
